PathFileType	4	(X/Y/Z)	Formatted/subject18/trials/walk2/markers.trc
DataRate	CameraRate	NumFrames	NumMarkers	Units	OrigDataRate	OrigDataStartFrame	OrigNumFrames
200.00000000000426	200.00000000000426	4	64	m	200.00000000000426	80	215
Frame#	Time	CLAV			C7			RACR			RASH			RPSH			RLEL			RMEL			RUA1			RUA2			RUA3			RFAsuperior			RFAradius			RFAulna			RASI			RPSI			RCAL			RTOE			RMT5			RTH1			RTH2			RTH3			RTB1			RTB2			RTB3			RLFC			RMFC			RLMAL			RMMAL			RHJC			RKJC			REJC			RAJC			RSJC			LACR			LASH			LPSH			LLEL			LMEL			LUA1			LUA2			LUA3			LFAsuperior			LFAradius			LFAulna			LASI			LPSI			LCAL			LTOE			LMT5			LTH1			LTH2			LTH3			LTB1			LTB2			LTB3			LLFC			LMFC			LLMAL			LMMAL			LHJC			LKJC			LEJC			LAJC			LSJC			
		X1	Y1	Z1	X2	Y2	Z2	X3	Y3	Z3	X4	Y4	Z4	X5	Y5	Z5	X6	Y6	Z6	X7	Y7	Z7	X8	Y8	Z8	X9	Y9	Z9	X10	Y10	Z10	X11	Y11	Z11	X12	Y12	Z12	X13	Y13	Z13	X14	Y14	Z14	X15	Y15	Z15	X16	Y16	Z16	X17	Y17	Z17	X18	Y18	Z18	X19	Y19	Z19	X20	Y20	Z20	X21	Y21	Z21	X22	Y22	Z22	X23	Y23	Z23	X24	Y24	Z24	X25	Y25	Z25	X26	Y26	Z26	X27	Y27	Z27	X28	Y28	Z28	X29	Y29	Z29	X30	Y30	Z30	X31	Y31	Z31	X32	Y32	Z32	X33	Y33	Z33	X34	Y34	Z34	X35	Y35	Z35	X36	Y36	Z36	X37	Y37	Z37	X38	Y38	Z38	X39	Y39	Z39	X40	Y40	Z40	X41	Y41	Z41	X42	Y42	Z42	X43	Y43	Z43	X44	Y44	Z44	X45	Y45	Z45	X46	Y46	Z46	X47	Y47	Z47	X48	Y48	Z48	X49	Y49	Z49	X50	Y50	Z50	X51	Y51	Z51	X52	Y52	Z52	X53	Y53	Z53	X54	Y54	Z54	X55	Y55	Z55	X56	Y56	Z56	X57	Y57	Z57	X58	Y58	Z58	X59	Y59	Z59	X60	Y60	Z60	X61	Y61	Z61	X62	Y62	Z62	X63	Y63	Z63	X64	Y64	Z64	

81	2.84	1.322871169327662	1.430947680002473	-0.4599748169316754	1.220405751790687	1.531147777828448	-0.4779080287992091	1.244549040050509	1.49421648222602	-0.3176257479419481	1.297569360083424	1.440469315427818	-0.3372774698275495	1.18489040031978	1.4683852128971	-0.3254184858876354	1.183083986834829	1.178361953821046	-0.1998982661792228	1.159474919579322	1.156434419921969	-0.268557443502466	1.256521442012847	1.389354930949147	-0.2583530315530159	1.199020081888477	1.347431560224538	-0.255234434006942	1.241345970028184	1.28674596796294	-0.2552878209803218	1.252754483141963	1.121521159090274	-0.2231206132771867	1.334232878429532	0.9779066634225795	-0.2171971436644584	1.284993998689228	0.9522520757466486	-0.1866892747382135	1.271809719175646	1.04662627862945	-0.3530395798340653	1.108435058104071	1.090002312416344	-0.4236628708445245	0.9699848487992829	0.05725026188244935	-0.4050598280105171	1.186632810350247	0.02104762047694472	-0.4431461719498712	1.173113139683379	0.02658975337068662	-0.3703037983488688	1.241632154825925	0.8125298278571845	-0.3117204947382386	1.258726689640258	0.6914946516433662	-0.3521653869193844	1.172410884975909	0.5732933364210193	-0.338002506604611	1.161237515896436	0.3694565477830802	-0.4044554392991331	1.089912213543752	0.2962284380094078	-0.3405134939514701	1.103477728953251	0.1790122100874702	-0.4058915707896996	1.164248635145548	0.4924635416918603	-0.3460662979394177	1.16316097487566	0.50657525626811	-0.457968251228187	1.039465893637622	0.08918962165897842	-0.3622159576966459	1.054397360296255	0.09403558415671021	-0.443568132865008	1.217967778139428	0.939905478618201	-0.3756747706550309	1.167097387333303	0.5110257242086258	-0.4078407431566415	1.185079191884302	1.167314395639804	-0.2399893211874055	1.03190192652869	0.07824252006461058	-0.407578907139351	1.255030548609215	1.448688497666225	-0.3151286979610884	1.24211799401896	1.497378285675355	-0.6425790674247176	1.286174000397293	1.435206158393794	-0.6079241600174048	1.182610988150486	1.475719019894558	-0.6261613044121586	1.179992891372988	1.164336255173525	-0.7372442919459818	1.157586430973501	1.158298046580258	-0.6681509850895471	1.216913620022962	1.371083254474242	-0.7021619471518155	1.163572807256427	1.310013247501496	-0.6747136738368251	1.229434883242389	1.286984939507982	-0.7010912785553447	1.225809319023264	1.094207528056632	-0.7211925132941476	1.265029974297684	0.9366346294697283	-0.7300233612224927	1.211613404400162	0.9326758615879339	-0.7579790388661527	1.271562779515718	1.051349428091667	-0.6074934024488683	1.103415677923204	1.089651367574596	-0.5237491144614452	1.241284722741382	0.116536328270503	-0.5725216557484867	1.451339350128313	0.04551158709857256	-0.5063111472829989	1.438801108015614	0.06060845786815586	-0.6000716069212182	1.259663887345187	0.8281908882489497	-0.6597766155867946	1.357825529245106	0.7661021202419591	-0.637330509198245	1.365012111109133	0.6444406654018413	-0.6297861909112072	1.409893118168513	0.4281472492037646	-0.5608073502114818	1.346275417367407	0.3281641279416084	-0.6205335942904004	1.36562450032948	0.216548991684675	-0.5703777551964584	1.402518991528131	0.5679364336449111	-0.6223873719387102	1.417016226909738	0.5709772877213972	-0.5085630004507489	1.309837418707146	0.1439363691655894	-0.610484201570056	1.317052807027013	0.1469661246071765	-0.5331474142337521	1.203804568025922	0.9541985507286495	-0.5919991900272745	1.416184914009328	0.5693460691778013	-0.5664656779762606	1.182182909623815	1.161860401790719	-0.6963111967289854	1.303955097200571	0.1300487707458679	-0.5652268160349614	1.251270259204606	1.447503215380051	-0.6384698212833798	
82	2.845	1.329030523809653	1.430254619824808	-0.4604450718892027	1.226584356259751	1.530505253171643	-0.4782049916847227	1.250972396812889	1.493553591995637	-0.317964463933505	1.303934426704888	1.439781844368973	-0.3377059176588244	1.191288573925048	1.467751612459806	-0.3256608053942076	1.190245221612283	1.177723379616078	-0.1997191634359067	1.166534750534858	1.155652310336844	-0.2682973588950509	1.26315837257691	1.388771448007532	-0.2586296129330362	1.205743630916948	1.346743287836712	-0.2553307839748	1.248184869210107	1.286138312388271	-0.2553856306889843	1.260318632066496	1.121421056249451	-0.223183439711278	1.343076011966887	0.9785250688286194	-0.2176253278174458	1.294168010227554	0.9524202289799071	-0.1869675406229739	1.277516467341628	1.0459716933031	-0.353060967056903	1.114309912814565	1.089529280193167	-0.4239606610209903	0.9700920305142984	0.05752101481865424	-0.4052211234754737	1.186726874444988	0.02093401507443032	-0.4430136614748253	1.173119301956776	0.02650655339741951	-0.3701899777490116	1.246001379230235	0.8115348050082403	-0.3117590044701877	1.261882133976509	0.6903355206419812	-0.3522072603407242	1.174416613213137	0.5729891242979444	-0.3379888857283647	1.162158388030411	0.3692719881273732	-0.4044083184338969	1.090562921766576	0.2962401545985653	-0.3405438706287611	1.103891900783894	0.1789824619366053	-0.405896239044815	1.165455547094211	0.4922430954534611	-0.3460437531264452	1.164442748703795	0.5063595448969995	-0.4579458118095388	1.03958928833526	0.08933492449725911	-0.362288158430491	1.054628919712783	0.0941339569392341	-0.4436231891944877	1.223553799813612	0.9391339213730088	-0.3757064846399233	1.168400294670851	0.5108247167368477	-0.4077985564750995	1.192177806203752	1.166622025755308	-0.2397984241062493	1.032049249043571	0.07840413922369044	-0.4076590252358182	1.26143595050312	1.448020406260388	-0.3154870258775473	1.248010374292032	1.496734186871263	-0.6429131938395529	1.292093020462391	1.434538872968288	-0.6083338509993361	1.18851987835266	1.475102824582474	-0.6263990925213088	1.184496786024107	1.164005513559897	-0.7375082805271168	1.162515730520375	1.157934680534653	-0.668281315633887	1.2221826976119	1.370608769078289	-0.7023927609217951	1.168858047393581	1.309642244390588	-0.6746842728212493	1.23448990575317	1.28647666316778	-0.7015116668017968	1.230100677302794	1.093664076470559	-0.7218382721244487	1.268561516578465	0.9359339003803773	-0.7311880013792574	1.214970718666373	0.9322683914054017	-0.7588486615010755	1.27763899802064	1.050438104689807	-0.6075195159777069	1.10943244664895	1.089084976587757	-0.5240535499748871	1.260094231203553	0.1107325395604457	-0.5734588798872325	1.472097672846538	0.04531941557191144	-0.5076792803289268	1.459029024372391	0.06028875337717714	-0.6013877440161058	1.265385978949561	0.8273957103176388	-0.6598315529945535	1.363426271135456	0.7651283504860724	-0.6373498325792828	1.370402532051955	0.643450459613192	-0.6298734733402643	1.419237564228579	0.4270990467428202	-0.5612588604622291	1.358570227385639	0.3253736447219175	-0.6211126610799648	1.381389220113771	0.2142785377177426	-0.5712618374262993	1.407775122904676	0.5668787815356937	-0.6224928468748473	1.422192647695178	0.5698267955673919	-0.5086559092665396	1.327755364899926	0.1401021103512495	-0.6114437445960476	1.335019857766988	0.1431664913280041	-0.5341129186935868	1.209688258556167	0.9534564247473866	-0.5920197974183502	1.421233390526413	0.5684367277813094	-0.5665867799537154	1.186941348885116	1.161469894842154	-0.6965932580525708	1.322381425612499	0.1259355077252248	-0.5662096182286941	1.257145224892094	1.446854471639152	-0.6388216156943738	
83	2.85	1.335206419114845	1.429502375851271	-0.4609205582951142	1.232779903031719	1.5298023352349	-0.4785145468697145	1.257399976227567	1.492828816947738	-0.3183145485520595	1.310305907221925	1.439033444666644	-0.3381418740160319	1.197692112650114	1.467055411765079	-0.3259196222966692	1.19738395561042	1.17703501992075	-0.1995470193671589	1.173573262300987	1.15482029344576	-0.2680440575661954	1.269792514301861	1.388128359010889	-0.2589158549234692	1.21246114961029	1.34600095029866	-0.2554377609749228	1.255012295004101	1.285473089200672	-0.2554908806726376	1.267851825368503	1.121269732982917	-0.2232513241820848	1.351871226110194	0.9790982537184555	-0.2180599332761092	1.303295711792393	0.9525490044502276	-0.1872555182455059	1.283251113623442	1.045257410066896	-0.3531082758786602	1.120210135320609	1.088999422044501	-0.4242748776149252	0.9701965006153942	0.05779570973481746	-0.4053848657628234	1.186814999037077	0.02081328774774237	-0.4428850882834398	1.173120579337818	0.02641820532536554	-0.3700801716099825	1.250395348159919	0.8104967103164882	-0.3118127583870471	1.265068087587514	0.6891457330664164	-0.352262447425598	1.176468214924399	0.5726603996830335	-0.3379870873741246	1.163113337189138	0.3690695360514584	-0.4043707381460004	1.091240571266251	0.29624474564634	-0.3405813768651813	1.104316308864457	0.178943655322486	-0.4059070190184457	1.166714010711551	0.4920053281975623	-0.3460318193640753	1.165775605589462	0.5061246266852256	-0.4579341671903351	1.039713099130841	0.08948078550029015	-0.3623640305264404	1.054859381841041	0.09422955085262402	-0.4436822191524935	1.229159307966311	0.9383054345278479	-0.3757554604816114	1.169755230931841	0.5106039025864224	-0.4077675640656847	1.199254639832455	1.165878361314999	-0.2396138583480747	1.032194544994084	0.07856658935602473	-0.4077424557977186	1.267845951557092	1.44729055415064	-0.3158563217139536	1.253933601275257	1.496031874981401	-0.6432580690177763	1.298040759420055	1.433813591539592	-0.6087513809402991	1.194458715234127	1.474427425790596	-0.6266527629535408	1.189041153922049	1.163623241238803	-0.7377884942739927	1.167483469795515	1.157515303221175	-0.6684317798817982	1.227487824781354	1.370079757365016	-0.7026346425786855	1.174180930388641	1.309214439935738	-0.6746706673488001	1.239580791494534	1.28591480479955	-0.7019448166987159	1.23445128449602	1.09308190322799	-0.7224930933122252	1.272198098711487	0.9352100970346344	-0.7323486942679117	1.218439723593905	0.9318206255377587	-0.7597178426464095	1.283725621462792	1.049457072326889	-0.6075709541686918	1.115467639116375	1.088458004817283	-0.5243737742030821	1.278819585611862	0.105228155978942	-0.5743997126479566	1.492604741337205	0.04540357441736177	-0.5090681092011335	1.479001724441784	0.06023298593586442	-0.6027227583075078	1.271077411017783	0.8265124129602236	-0.6599006050133864	1.368969339493488	0.7640271752923036	-0.6373769250740169	1.375686112657525	0.6423304337390772	-0.6299700806238737	1.428412333887524	0.4260275564375332	-0.5617222974381741	1.370722469235333	0.3226557256662598	-0.6216989991124383	1.396987379331911	0.2121848852252795	-0.5721582910207429	1.412893125952588	0.5656765594135797	-0.6226061285448091	1.427223166478547	0.5685243489394678	-0.5087555940480655	1.345536012640429	0.1365160822470117	-0.6124113354667118	1.352862370365738	0.1396187042590882	-0.5350878711025617	1.215586530547306	0.9526470026331452	-0.5920566557876766	1.426128462936938	0.5673730433139988	-0.5667170349880892	1.191738324479856	1.161025541491553	-0.6968932434377277	1.34068457931879	0.1220885366734891	-0.5672006335799242	1.263051343193605	1.446147603471315	-0.6391839142516322	
84	2.855	1.341399656014682	1.428692159149773	-0.4614023326522615	1.238993710616131	1.529040797031155	-0.4788377765992277	1.263833138274857	1.492044098953678	-0.3186769958674029	1.316684837900348	1.438225711524984	-0.3385863270858865	1.204102190541243	1.466298884218056	-0.3261957946687586	1.204502841299126	1.176298349886039	-0.199382346711333	1.180593353085509	1.153939594272747	-0.2677980601919567	1.27642526810128	1.387427613726627	-0.2592125588815107	1.21917427232187	1.345206108176238	-0.2555561903217975	1.261830314162353	1.284752121086327	-0.2556041961628457	1.275356652416195	1.121068205077811	-0.2233241707345296	1.36062041196637	0.9796265019707284	-0.2184996825425375	1.312378577154594	0.9526390457448189	-0.1875520203728187	1.289012451715427	1.044487384703035	-0.3531806377069114	1.126134464645162	1.088414121176667	-0.424606211356667	0.9702995669211677	0.05807894013643761	-0.4055496024815349	1.186897880427183	0.02068641991777582	-0.4427586081338974	1.173117666504375	0.02632608431048097	-0.3699725654226757	1.254815988245364	0.8094189391621998	-0.3118804682355827	1.268288900229078	0.6879285994463855	-0.3523292544174711	1.178571605328418	0.5723088544572945	-0.3379961529274688	1.164108148247865	0.3688505158771117	-0.4043415376173329	1.091949841215667	0.29624481721428	-0.3406248330611534	1.104753993376258	0.1788981899226309	-0.4059224821640244	1.168031313974855	0.4917516036939598	-0.3460294820367322	1.167167795918768	0.5058716172794582	-0.4579323425716546	1.039839040408673	0.08963075266757864	-0.3624420824573161	1.055090648690614	0.09432550481721291	-0.4437437195921176	1.234784801821705	0.9374231622415959	-0.3758209013205634	1.171170070027828	0.5103643422369335	-0.4077468715286306	1.206312487967329	1.165084836420805	-0.2394361152147804	1.032339449645984	0.0787334405626941	-0.4078277028801411	1.274261653826203	1.446500826684835	-0.3162375137929746	1.259888550126787	1.495272678467691	-0.6436148104218102	1.304017800008365	1.43303145281934	-0.6091778121378124	1.200428249864749	1.473694529427845	-0.6269232957903293	1.193626489330172	1.163190003928512	-0.7380841802868194	1.17248903747472	1.157041354786265	-0.6686018319831601	1.232830112958062	1.369496975468858	-0.7028884102505432	1.179541763767297	1.308731162958704	-0.6746738105418093	1.244708199479166	1.285300074866405	-0.7023904809827706	1.238860526156329	1.092460845010363	-0.7231557196145163	1.275937098230107	0.9344617434416782	-0.733503364327852	1.222017577452575	0.9313316312021815	-0.7605848962594944	1.289823498516808	1.048409478284168	-0.6076468954865051	1.121520833666116	1.087771447494764	-0.524710531347142	1.297429622612867	0.1000393951531863	-0.5753364028375897	1.512831895581892	0.0457664208487524	-0.5104704114677762	1.498690967638139	0.06044234524332085	-0.6040695472219851	1.276744876198078	0.8255459204648051	-0.6599832472754513	1.374463599665299	0.7628075321230768	-0.6374112190693005	1.380876489590311	0.6410900900455059	-0.6300755235997928	1.437420488968395	0.4249415096913021	-0.5621951932631578	1.382724476656705	0.3200215499775829	-0.6222885282944876	1.412400441371711	0.2102765443862981	-0.573061455312773	1.417889552591035	0.5643409224258638	-0.6227267471936477	1.432123987505682	0.5670817442491751	-0.5088615947972841	1.36315283866921	0.133189602592341	-0.6133801296295973	1.370553868803233	0.1363356950444342	-0.536065533482549	1.221501125517438	0.9517727739911124	-0.5921092210690346	1.430887231314023	0.5661658099561888	-0.5668560611191804	1.196573699147407	1.160528348244019	-0.69721030284332	1.35883633306642	0.118520789799188	-0.5681928332702568	1.268989207938042	1.445383893616488	-0.6395577582514727	
